<?xml version="1.0" encoding="utf-8"?>
<!-- Generator: Adobe Illustrator 16.0.0, SVG Export Plug-In . SVG Version: 6.00 Build 0)  -->
<!DOCTYPE svg PUBLIC "-//W3C//DTD SVG 1.1//EN" "http://www.w3.org/Graphics/SVG/1.1/DTD/svg11.dtd">
<svg version="1.1" id="Layer_1" xmlns="http://www.w3.org/2000/svg" xmlns:xlink="http://www.w3.org/1999/xlink" x="0px" y="0px"
	 width="23.692px" height="28.923px" viewBox="329.952 -28.035 23.692 28.923"
	 enable-background="new 329.952 -28.035 23.692 28.923" xml:space="preserve">
<g>
	<g opacity="0.7">
		<path fill="#7CC3C2" d="M352.265-22.999l-0.039-0.114l-0.081-0.09c-2.305-2.495-4.983-3.677-6.827-4.229
			c-1.999-0.596-3.451-0.603-3.516-0.603v1.16c0.054,0,5.348,0.052,9.404,4.37c0.665,1.969,0.999,4.392,1.155,6.68
			c-1.327-1.654-2.628-2.458-3.914-2.496c-2.824-0.089-5.282,2.766-5.689,3.324c-0.308,0.328-0.956,0.426-0.956,0.426v4.921
			c0.922-0.002,1.858,0.068,2.261,0.194c0,0.259-1.059,1.438-2.253,1.438c0,0-0.005,0-0.008,0v1.497
			c2.307-0.009,4.21,0.469,4.21,0.469l0.374,0.098l0.002,3.898l-1.781,1.081h-2.805v0.701l0,0v1.16h3.88l0.13-0.07
			c0.214-0.117,5.265-2.89,7.241-5.402l0.066-0.086l0.031-0.102c0.207-0.669,0.494-3.748,0.494-7.238
			C353.645-15.204,353.406-19.7,352.265-22.999z M343.997-13.603c1.814-1.76,3.365-2.824,4.488-2.919
			c2.072-0.179,2.917,1.928,2.917,1.928s-1.432,2.463-3.662,2.674C346.636-11.815,345.216-12.267,343.997-13.603z M352.063-5.208
			c-1.019,1.25-2.919,2.604-4.451,3.592l-0.042-4.625c0.242,0.118,0.534,0.108,0.777-0.051c0.363-0.243,0.465-0.734,0.223-1.1
			c-0.223-0.338-0.659-0.449-1.017-0.271v-0.022l-3.053-1.121c0,0,0.463-0.657,0.312-1.247c-0.132-0.354-0.652-1.648-0.652-1.648
			s1.977,1.919,4.42,1.192c1.234-0.366,2.509-1.571,3.866-3.675c0.025,0.766,0.038,1.502,0.038,2.174
			C352.484-8.609,352.208-5.868,352.063-5.208z"/>
		<circle fill="#7CC3C2" cx="350.227" cy="-19.952" r="0.131"/>
		<path fill="#7CC3C2" d="M348.966-9.734c-0.771,0.325-1.983,0.479-3.519-0.475c1.645,1.485,2.691,1.759,3.35,1.556
			C349.789-8.962,349.579-9.989,348.966-9.734z"/>
		<path fill="#7CC3C2" d="M343.124-20.666c-0.743,1.919-0.316,4.498-0.316,4.498c0.084-0.476,0.827-1.499,1.255-1.916
			c0.757-0.777,1.241-1.039,1.851-1.319c0.618-0.262,0.528-0.887,0.302-1.104c-0.378-0.366-1.226,0.116-1.879,0.928
			c-0.31,0.386-0.59,0.841-0.826,1.3c0,0,0,0,0-0.003c-0.064-1.036,0.487-2.926,1.495-3.704c0.884-0.704,1.574,0.058,1.574,0.058
			s0.743,0.366,1.118-0.357C348.104-23.524,344.596-24.761,343.124-20.666z"/>
		<circle fill="#7CC3C2" cx="347.383" cy="-20.434" r="0.444"/>
		<path fill="#7CC3C2" d="M348.753-20.231c0.146-0.036,0.238-0.182,0.207-0.332c-0.035-0.151-0.182-0.243-0.332-0.208
			c-0.146,0.035-0.242,0.182-0.207,0.332C348.457-20.293,348.603-20.2,348.753-20.231z"/>
		<path fill="#7CC3C2" d="M349.607-20.032c0.105-0.025,0.169-0.128,0.146-0.233c-0.023-0.105-0.128-0.168-0.233-0.146
			c-0.102,0.025-0.168,0.127-0.145,0.233C349.399-20.072,349.506-20.009,349.607-20.032z"/>
		<path fill="#7CC3C2" d="M349.145-7.79c-0.203,0.134-0.262,0.411-0.125,0.616c0.135,0.207,0.412,0.261,0.616,0.126
			c0.204-0.133,0.261-0.41,0.127-0.614C349.626-7.87,349.353-7.924,349.145-7.79z"/>
		<path fill="#7CC3C2" d="M350.423-8.341c-0.144,0.054-0.213,0.213-0.163,0.357c0.055,0.14,0.214,0.213,0.357,0.159
			c0.141-0.051,0.214-0.21,0.16-0.354C350.726-8.322,350.565-8.392,350.423-8.341z"/>
		<circle fill="#7CC3C2" cx="351.095" cy="-8.799" r="0.193"/>
		<circle fill="#7CC3C2" cx="351.498" cy="-9.388" r="0.132"/>
	</g>
	<g>
		<path fill="#7CC3C2" d="M341.795-28.035c-0.063,0-1.517,0.006-3.515,0.603c-1.844,0.552-4.521,1.734-6.828,4.229l-0.081,0.09
			l-0.038,0.114c-1.143,3.298-1.381,7.795-1.381,10.989c0,3.49,0.287,6.568,0.494,7.238l0.031,0.102l0.066,0.086
			c1.977,2.512,7.028,5.285,7.242,5.402l0.13,0.07h3.879v-1.16l0,0v-0.701h-2.817l-1.769-1.077l0.003-3.901l0.374-0.098
			c0,0,1.902-0.479,4.209-0.469v-1.497c-0.003,0-0.006,0-0.006,0c-1.195,0-2.253-1.179-2.253-1.438
			c0.4-0.126,1.338-0.196,2.259-0.194v-4.921c0,0-0.648-0.098-0.957-0.426c-0.406-0.559-2.863-3.414-5.688-3.324
			c-1.287,0.038-2.588,0.841-3.915,2.496c0.157-2.289,0.491-4.711,1.156-6.68c2.092-2.231,4.511-3.299,6.178-3.803
			c1.849-0.558,3.212-0.567,3.226-0.567V-28.035z M335.111-16.522c1.122,0.095,2.675,1.16,4.487,2.919
			c-1.217,1.335-2.638,1.788-3.737,1.682c-2.235-0.21-3.666-2.674-3.666-2.674S333.04-16.701,335.111-16.522z M335.017-10.509
			c2.442,0.727,4.42-1.192,4.42-1.192s-0.519,1.295-0.653,1.648c-0.149,0.589,0.313,1.247,0.313,1.247l-3.102,1.121
			c-0.236-0.099-0.517-0.083-0.746,0.067c-0.362,0.242-0.465,0.733-0.226,1.099c0.21,0.315,0.603,0.435,0.939,0.307l-0.08,4.528
			c-1.514-0.979-3.353-2.304-4.35-3.524c-0.145-0.66-0.421-3.401-0.421-6.801c0-0.672,0.011-1.409,0.038-2.174
			C332.508-12.08,333.782-10.875,335.017-10.509z"/>
		<path fill="#7CC3C2" d="M334.637-20.563c-0.03,0.149,0.061,0.296,0.207,0.332c0.15,0.031,0.296-0.062,0.331-0.208
			c0.035-0.149-0.061-0.296-0.207-0.332C334.818-20.806,334.673-20.714,334.637-20.563z"/>
		<path fill="#7CC3C2" d="M334.8-8.653c0.659,0.204,1.704-0.07,3.351-1.556c-1.537,0.953-2.748,0.8-3.52,0.475
			C334.02-9.989,333.809-8.962,334.8-8.653z"/>
		<path fill="#7CC3C2" d="M337.382-20.507c-0.227,0.217-0.315,0.842,0.303,1.104c0.608,0.28,1.093,0.542,1.852,1.319
			c0.427,0.417,1.169,1.44,1.252,1.916c0,0,0.426-2.579-0.312-4.498c-1.476-4.095-4.986-2.858-4.577-1.619
			c0.379,0.723,1.118,0.357,1.118,0.357s0.691-0.762,1.577-0.058c1.004,0.778,1.556,2.668,1.493,3.704c0,0.003,0,0.003,0,0.003
			c-0.237-0.459-0.519-0.915-0.826-1.3C338.609-20.391,337.761-20.873,337.382-20.507z"/>
		<circle fill="#7CC3C2" cx="336.215" cy="-20.434" r="0.444"/>
		<path fill="#7CC3C2" d="M333.843-20.265c-0.021,0.105,0.042,0.208,0.147,0.233c0.102,0.022,0.207-0.041,0.229-0.146
			c0.026-0.105-0.041-0.208-0.143-0.233C333.972-20.433,333.87-20.37,333.843-20.265z"/>
		<circle fill="#7CC3C2" cx="333.37" cy="-19.952" r="0.132"/>
		<path fill="#7CC3C2" d="M333.961-7.048c0.208,0.134,0.482,0.081,0.615-0.126c0.138-0.205,0.081-0.482-0.123-0.616
			c-0.207-0.134-0.481-0.08-0.62,0.128C333.699-7.458,333.759-7.181,333.961-7.048z"/>
		<path fill="#7CC3C2" d="M332.98-7.825c0.144,0.054,0.302-0.019,0.357-0.159c0.05-0.144-0.021-0.303-0.163-0.357
			c-0.145-0.051-0.304,0.019-0.354,0.162C332.767-8.035,332.84-7.875,332.98-7.825z"/>
		<circle fill="#7CC3C2" cx="332.501" cy="-8.799" r="0.192"/>
		<path fill="#7CC3C2" d="M332.052-9.265c0.067,0.025,0.144-0.01,0.169-0.077c0.027-0.067-0.009-0.144-0.075-0.169
			c-0.07-0.025-0.144,0.01-0.17,0.077C331.949-9.364,331.982-9.291,332.052-9.265z"/>
	</g>
</g>
</svg>
