<?xml version="1.0" encoding="utf-8"?>
<!-- Generator: Adobe Illustrator 16.0.0, SVG Export Plug-In . SVG Version: 6.00 Build 0)  -->
<!DOCTYPE svg PUBLIC "-//W3C//DTD SVG 1.1//EN" "http://www.w3.org/Graphics/SVG/1.1/DTD/svg11.dtd">
<svg version="1.1" id="Layer_1" xmlns="http://www.w3.org/2000/svg" xmlns:xlink="http://www.w3.org/1999/xlink" x="0px" y="0px"
	 width="78.43px" height="33.005px" viewBox="232.409 -32.121 78.43 33.005" enable-background="new 232.409 -32.121 78.43 33.005"
	 xml:space="preserve">
<g>
	<rect x="257.039" y="-3.114" fill="#DDDDDD" width="0.888" height="3.924"/>
	<polygon fill="#DDDDDD" points="265.757,-2.337 266.959,-2.337 266.959,0.81 267.848,0.81 267.848,-2.337 269.043,-2.337 
		269.043,-3.114 265.757,-3.114 	"/>
	<polygon fill="#DDDDDD" points="272.059,-0.807 273.541,-0.807 273.541,-1.583 272.059,-1.583 272.059,-2.337 273.788,-2.337 
		273.788,-3.114 271.17,-3.114 271.17,0.81 273.887,0.81 273.887,0.035 272.059,0.035 	"/>
	<polygon fill="#DDDDDD" points="292.604,-2.337 293.807,-2.337 293.807,0.81 294.694,0.81 294.694,-2.337 295.894,-2.337 
		295.894,-3.114 292.604,-3.114 	"/>
	<rect x="298.175" y="-3.114" fill="#DDDDDD" width="0.892" height="3.924"/>
	<polygon fill="#DDDDDD" points="307.941,-0.807 309.424,-0.807 309.424,-1.583 307.941,-1.583 307.941,-2.337 309.671,-2.337 
		309.671,-3.114 307.053,-3.114 307.053,0.81 309.77,0.81 309.77,0.035 307.941,0.035 	"/>
	<path fill="#DDDDDD" d="M288.779-2.34c0.432,0,0.832,0.237,1.042,0.615l0.03,0.054h0.891l-0.046-0.139
		c-0.283-0.817-1.054-1.367-1.917-1.367c-1.122,0-2.032,0.913-2.032,2.031c0,1.121,0.91,2.03,2.032,2.03
		c0.863,0,1.634-0.549,1.917-1.367l0.046-0.136h-0.891l-0.03,0.054c-0.21,0.378-0.61,0.614-1.042,0.614
		c-0.66,0-1.196-0.537-1.196-1.195C287.583-1.804,288.119-2.34,288.779-2.34z"/>
	<polygon fill="#DDDDDD" points="263.115,-0.702 261.436,-3.114 260.544,-3.114 260.544,0.81 261.436,0.81 261.436,-1.606 
		263.1,0.81 263.115,0.807 263.115,0.81 264.006,0.81 264.006,-3.114 263.115,-3.114 	"/>
	<path fill="#DDDDDD" d="M279.231-1.671c0-0.794-0.638-1.435-1.43-1.441v-0.001H276.3l0,0V0.81h0.895v-1.042h0.243l0.733,1.042
		h1.073l-0.832-1.187C278.896-0.608,279.231-1.1,279.231-1.671z M277.795-1.123h-0.601v-1.101h0.601v0.001
		c0.303,0.001,0.546,0.247,0.546,0.55C278.341-1.369,278.098-1.124,277.795-1.123z"/>
	<path fill="#DDDDDD" d="M282.645-3.114l-1.557,3.924h0.968l0.354-0.897h1.291l0.358,0.897h0.968l-1.557-3.924H282.645z
		 M282.746-0.933l0.312-0.785l0.312,0.785H282.746z"/>
	<polygon fill="#DDDDDD" points="303.052,-0.586 302.05,-3.114 301.082,-3.114 302.642,0.81 303.465,0.81 305.021,-3.114 
		304.057,-3.114 	"/>
	<path fill="#DDDDDD" d="M252.406-12.604c-0.133,0.251-0.299,0.486-0.519,0.703c-0.486,0.502-1.104,0.754-1.824,0.754
		c-0.719,0-1.323-0.251-1.822-0.754c-0.487-0.485-0.737-1.104-0.737-1.808c0-0.718,0.25-1.321,0.737-1.84
		c0.499-0.502,1.104-0.752,1.822-0.752c0.721,0,1.338,0.25,1.824,0.752c0.22,0.217,0.386,0.469,0.537,0.737h4.75
		c-0.216-1.523-0.903-2.829-2.056-3.949c-1.209-1.221-2.639-1.91-4.288-2.071c-0.237-0.017-0.479-0.031-0.731-0.037h-0.009
		c-0.013,0-0.024,0-0.037,0c-1.97,0.003-3.641,0.705-5.043,2.108c-1.406,1.387-2.094,3.078-2.094,5.053
		c0,1.976,0.688,3.666,2.094,5.056c0.413,0.412,0.851,0.763,1.31,1.053c1.033,0.617,2.238,0.988,3.521,1.033
		c0.059,0.001,0.12,0.005,0.183,0.005c0.018,0,0.033,0,0.052,0c1.97-0.003,3.656-0.689,5.044-2.09
		c1.152-1.122,1.821-2.445,2.056-3.951H252.406z"/>
	<path fill="#DDDDDD" d="M304.368-7.134c0.013,0,0.024-0.002,0.04-0.002l0,0c0.003,0,0.003,0,0.003,0
		c1.724-0.057,3.234-0.693,4.467-1.943c1.323-1.292,1.961-2.864,1.961-4.698c0-1.837-0.638-3.393-1.961-4.701
		c-1.245-1.259-2.753-1.897-4.51-1.96h-3.339h-1.288h-3.57l-1.658,5.404l-1.646-5.37l0.01-0.034h-0.021h-4.837h-0.021l0.012,0.034
		l-1.648,5.369l-1.659-5.402h-4.858l0.734,2.38c-0.194-0.242-0.407-0.478-0.639-0.705c-1.371-1.404-3.061-2.105-5.049-2.107l0,0
		h-0.004h-0.003c-1.973,0-3.662,0.703-5.053,2.107c-0.598,0.59-1.066,1.235-1.408,1.932c-0.163-0.865-0.573-1.625-1.242-2.28
		c-0.793-0.809-1.742-1.246-2.846-1.323h-7.47c1.714,1.731,2.771,4.109,2.771,6.734c0,2.543-0.992,4.851-2.607,6.566h4.553v-3.593
		l2.053,3.593h4.898l-2.395-4.247c0.172-0.125,0.499-0.373,0.949-0.761c0.265-0.222,0.487-0.489,0.672-0.792
		c0.163,1.645,0.854,3.075,2.071,4.28c1.391,1.403,3.08,2.09,5.053,2.09c1.991,0,3.685-0.688,5.056-2.09
		c1.311-1.283,2.01-2.821,2.111-4.601l1.878,6.121h0.009h4.85h0.009l1.644-5.358l1.643,5.358h0.01h4.849h0.007l2.799-9.121v9.121
		H304.368z M304.008-16.299c0.049-0.016,0.126-0.016,0.188-0.016c0.669,0,1.276,0.248,1.761,0.748
		c0.496,0.497,0.746,1.088,0.746,1.79c0,0.698-0.25,1.306-0.746,1.788c-0.484,0.5-1.092,0.748-1.761,0.748h-0.188V-16.299z
		 M264.16-15.44c0,0.029,0,0.029,0,0.029c0,0.034,0,0.034,0,0.064v0.062c-0.03,0.248-0.139,0.45-0.339,0.653
		c-0.188,0.187-0.423,0.312-0.703,0.312h-1.528c-0.004-0.001-0.007-0.001-0.007-0.001h-0.003v-2.255h1.538
		c0.28,0.015,0.515,0.125,0.703,0.327c0.231,0.217,0.323,0.45,0.339,0.761V-15.44z M276.707-11.901
		c-0.502,0.52-1.088,0.771-1.825,0.771c-0.699,0-1.322-0.251-1.807-0.771c-0.518-0.485-0.768-1.105-0.768-1.808
		c0-0.718,0.25-1.321,0.768-1.84c0.484-0.502,1.107-0.752,1.807-0.752c0.737,0,1.323,0.25,1.825,0.752
		c0.502,0.52,0.771,1.122,0.771,1.84C277.478-13.007,277.209-12.387,276.707-11.901z"/>
	<circle fill="#DDDDDD" cx="234.922" cy="-16.365" r="1.07"/>
	<circle fill="#DDDDDD" cx="237.512" cy="-21.023" r="0.491"/>
	<circle fill="#DDDDDD" cx="235.602" cy="-20.785" r="0.67"/>
	<circle fill="#DDDDDD" cx="236.612" cy="-23.949" r="1.333"/>
	<circle fill="#DDDDDD" cx="239.38" cy="-25.121" r="0.851"/>
	<circle fill="#DDDDDD" cx="240.696" cy="-28.092" r="0.631"/>
	<circle fill="#DDDDDD" cx="243.796" cy="-27.05" r="0.988"/>
	<circle fill="#DDDDDD" cx="243.757" cy="-31.253" r="0.851"/>
	<path fill="#DDDDDD" d="M246.888-29.237c0.577,0.379,1.351,0.219,1.727-0.357c0.309-0.465,0.259-1.061-0.074-1.472
		c0.142-0.014,0.28-0.087,0.367-0.218c0.147-0.227,0.086-0.53-0.142-0.678c-0.226-0.149-0.53-0.086-0.679,0.139
		c-0.077,0.117-0.096,0.256-0.067,0.38c-0.533-0.207-1.159-0.021-1.489,0.479C246.151-30.389,246.312-29.616,246.888-29.237z"/>
	<path fill="#DDDDDD" d="M250.118-27.192c0.457,0.301,1.067,0.174,1.369-0.282c0.299-0.457,0.173-1.07-0.283-1.369
		c-0.457-0.299-1.07-0.172-1.366,0.284C249.536-28.103,249.662-27.491,250.118-27.192z"/>
	<circle fill="#DDDDDD" cx="252.471" cy="-31.132" r="0.988"/>
	<path fill="#DDDDDD" d="M254.092-28.821c0.29,0.191,0.682,0.111,0.873-0.181c0.191-0.291,0.11-0.681-0.179-0.874
		c-0.293-0.19-0.682-0.109-0.876,0.182C253.723-29.402,253.799-29.012,254.092-28.821z"/>
	<circle fill="#DDDDDD" cx="257.879" cy="-23.745" r="0.851"/>
	<path fill="#DDDDDD" d="M236.28-7.62c-0.392-0.257-0.919-0.148-1.178,0.244c-0.256,0.393-0.147,0.92,0.243,1.179
		c0.396,0.257,0.922,0.148,1.178-0.245C236.783-6.835,236.675-7.362,236.28-7.62z"/>
	<circle fill="#DDDDDD" cx="233.039" cy="-9.156" r="0.631"/>
	<path fill="#DDDDDD" d="M240.491-13.722c0-5.292,4.288-9.581,9.578-9.581c2.377,0,4.55,0.866,6.224,2.298
		c0.426-0.205,0.996-0.888,0.892-0.896c0.073-0.422-0.103-0.866-0.484-1.117c-0.12-0.08-0.256-0.131-0.389-0.157l0.003-0.002
		c0,0-0.28-0.021-0.265-0.303c0.04-0.031,0.077-0.066,0.104-0.11c0.148-0.228,0.087-0.531-0.142-0.681
		c-0.225-0.148-0.53-0.084-0.678,0.142c-0.151,0.227-0.087,0.53,0.139,0.68c0.049,0.031,0.099,0.049,0.15,0.064
		c0.003,0.011,0.01,0.021,0.019,0.031c0.099,0.095,0.059,0.194,0.025,0.243c-0.136,0.057-0.263,0.137-0.367,0.245
		c-0.064-0.104-0.154-0.199-0.262-0.27c-0.217-0.144-0.473-0.173-0.706-0.106c0.123-0.498-0.071-1.041-0.524-1.338
		c-0.148-0.099-0.312-0.16-0.478-0.188c0.067-0.054,0.126-0.119,0.176-0.194c0.083-0.126,0.123-0.267,0.132-0.407l0.004,0.001
		c0,0,0.156-0.623,0.665-0.377c0.457,0.299,1.073,0.172,1.372-0.284c0.299-0.458,0.17-1.071-0.283-1.369
		c-0.46-0.302-1.07-0.173-1.372,0.282c-0.108,0.168-0.16,0.358-0.16,0.544v-0.002c0,0,0,0.005,0,0.011c0,0.002,0,0.002,0,0.002
		c0,0.08-0.019,0.536-0.503,0.498h-0.003c-0.03-0.026-0.062-0.054-0.096-0.077c-0.37-0.244-0.863-0.159-1.134,0.185
		c-0.074-0.169-0.197-0.322-0.364-0.432c-0.456-0.3-1.069-0.174-1.368,0.282c-0.05,0.077-0.087,0.157-0.114,0.24
		c-0.016-0.011-0.031-0.021-0.047-0.032c-0.246-0.163-0.539-0.2-0.804-0.126c0.052-0.052,0.098-0.112,0.142-0.177
		c0.379-0.575,0.219-1.347-0.358-1.728c-0.576-0.376-1.35-0.216-1.726,0.359c-0.2,0.304-0.247,0.661-0.167,0.988
		c-0.49-0.231-1.088-0.072-1.393,0.395c-0.191,0.291-0.226,0.64-0.127,0.948c0.01,0.024,0.019,0.051,0.027,0.074
		c0.013,0.029,0.025,0.057,0.041,0.084c0.203,0.387,0.533,0.294,0.755,0.432c0.003,0.003,0.003,0.004,0.006,0.006
		c0.213,0.114,0.357,0.336,0.357,0.595c0,0.375-0.302,0.677-0.675,0.677c-0.376,0-0.678-0.302-0.678-0.677
		c0-0.035,0.003-0.069,0.009-0.102c0-0.005,0-0.006,0-0.011c0.04-0.405-0.099-0.577-0.163-0.63c-0.01-0.008-0.019-0.016-0.028-0.023
		c-0.139-0.091-0.296-0.134-0.45-0.137v-0.001c-0.003,0-0.006,0-0.009,0h-0.003c-0.034-0.003-0.071,0.001-0.114,0.011
		c-0.074,0.009-0.145,0.028-0.216,0.056c-0.096,0.025-0.203,0.046-0.323,0.042c-0.167-0.006-0.317-0.163-0.543-0.25l0,0
		c-0.435-0.184-0.946-0.04-1.212,0.365c-0.132,0.202-0.179,0.432-0.153,0.652c0,0.003-0.003,0.003,0,0.008
		c0,0.011,0.003,0.021,0.006,0.034c0.024,0.152,0.083,0.297,0.176,0.425c0.016,0.055-0.019,0.074-0.08,0.071
		c-0.003,0.001-0.013,0.003-0.019,0.004c-0.037,0.003-0.071,0.011-0.105,0.019c-0.027,0.008-0.062,0.014-0.095,0.023
		c-0.065,0.016-0.108,0.045-0.139,0.066c-0.019,0.011-0.034,0.023-0.053,0.032c-0.04,0.016-0.111,0.011-0.139-0.137
		c-0.013-0.029-0.024-0.061-0.034-0.091c-0.006-0.016-0.012-0.033-0.019-0.05c-0.012-0.027-0.021-0.054-0.034-0.074
		c0-0.001,0,0,0-0.001c-0.076-0.146-0.188-0.274-0.332-0.372c-0.46-0.299-1.073-0.172-1.372,0.284s-0.173,1.069,0.283,1.369
		c0.213,0.139,0.456,0.185,0.69,0.149l0.025,0.019c0.126-0.066,0.268-0.108,0.419-0.108c0.493,0,0.894,0.399,0.894,0.894
		s-0.4,0.896-0.894,0.896c-0.496,0-0.894-0.401-0.894-0.896c0-0.004,0.003-0.009,0.003-0.015c-0.062-0.255-0.216-0.489-0.453-0.643
		c-0.493-0.325-1.153-0.188-1.48,0.307c-0.323,0.492-0.185,1.155,0.309,1.478c0.148,0.097,0.309,0.151,0.475,0.17
		c-0.345,0.003-0.681,0.168-0.885,0.473c-0.034-0.028-0.07-0.056-0.107-0.08c-0.617-0.406-1.443-0.233-1.847,0.382
		c-0.404,0.613-0.231,1.441,0.382,1.845c0.204,0.134,0.432,0.205,0.66,0.217c-0.037,0.042-0.074,0.086-0.108,0.134
		c-0.323,0.493-0.188,1.156,0.306,1.479c0.139,0.089,0.283,0.139,0.435,0.16c0.346,0.239,0.389,0.672,0.2,0.978
		c-0.046,0.063-0.4,0.496-0.934,0.136c-0.083-0.101-0.179-0.191-0.293-0.267c-0.616-0.402-1.442-0.233-1.847,0.384
		c-0.306,0.467-0.283,1.056,0.019,1.489c-0.207-0.057-0.423-0.031-0.61,0.063c0.03-0.351-0.127-0.707-0.441-0.914
		c-0.456-0.3-1.069-0.172-1.368,0.284c-0.299,0.457-0.173,1.07,0.283,1.369c0.33,0.218,0.743,0.21,1.061,0.016
		c0,0.277,0.133,0.55,0.383,0.714c0.395,0.257,0.921,0.149,1.177-0.244c0.025-0.039,0.047-0.076,0.062-0.114h0.003
		c0.04-0.088,0.062-0.179,0.07-0.27c0.127-0.296,0.349-0.333,0.447-0.333c0.013,0,0.021,0.001,0.037,0.001
		c0.006,0.001,0.009,0.001,0.009,0.001h-0.003c0.124-0.003,0.244-0.021,0.364-0.055c0,0,0,0.001,0,0.003
		c0-0.003,0.003-0.003,0.006-0.006c0.099-0.028,0.191-0.068,0.277-0.12c0.274-0.044,0.354,0.205,0.284,0.417
		c0,0.001,0,0.001,0,0.001c-0.031,0.043-0.05,0.086-0.068,0.133c-0.006,0.005-0.009,0.008-0.009,0.012
		c-0.034,0.039-0.043,0.073-0.04,0.108c-0.127,0.409,0.021,0.868,0.397,1.116c0.185,0.122,0.397,0.171,0.601,0.159
		c0.071-0.025,0.148-0.04,0.229-0.04c0.05-0.017,0.102-0.034,0.147-0.057c-0.009,0.021-0.012,0.046-0.018,0.068
		c0.317,0.062,0.561,0.34,0.561,0.678c0,0.381-0.309,0.689-0.69,0.689c-0.302,0-0.558-0.197-0.65-0.469
		c-0.021-0.04-0.043-0.088-0.062-0.148c-0.006-0.097-0.025-0.191-0.059-0.28c0-0.005,0-0.008-0.003-0.013c0-0.001,0-0.001,0-0.001
		c-0.071-0.185-0.2-0.35-0.376-0.467c-0.46-0.299-1.07-0.173-1.369,0.284c-0.299,0.456-0.176,1.069,0.283,1.369
		c0.386,0.254,0.889,0.199,1.212-0.105c0.006-0.003,0.013-0.009,0.019-0.016c0.006-0.003,0.012-0.007,0.016-0.014
		c0.003-0.001,0.006-0.003,0.006-0.006c0.234-0.25,0.305-0.082,0.327,0.067c-0.143,0.506,0.052,1.068,0.515,1.372
		c0.021,0.014,0.04,0.024,0.062,0.035c-0.114,0.073-0.213,0.168-0.293,0.289c-0.296,0.455-0.17,1.068,0.287,1.367
		c0.45,0.299,1.057,0.176,1.359-0.271c0,0.354,0.169,0.705,0.49,0.914c0.502,0.33,1.177,0.19,1.507-0.313
		c0.12-0.251,0.08-0.447,0.08-0.447l0.007,0.003c-0.003-0.021-0.007-0.044-0.007-0.066c0-0.231,0.186-0.418,0.416-0.418
		c0.231,0,0.417,0.187,0.417,0.418c0,0.137-0.065,0.257-0.167,0.333v0.001h-0.003c-0.043,0.034-0.099,0.061-0.154,0.073
		c-0.037,0.02-0.077,0.044-0.114,0.074c-0.012,0.014-0.027,0.026-0.04,0.042c-0.021,0.019-0.043,0.035-0.062,0.057
		c-0.037,0.043-0.07,0.088-0.102,0.137c-0.145,0.219-0.21,0.466-0.2,0.708c-0.123,0.669-0.595,0.359-0.595,0.359
		c-0.29-0.189-0.682-0.108-0.869,0.182c-0.191,0.292-0.111,0.682,0.178,0.873c0.293,0.193,0.685,0.113,0.873-0.179
		c0.019-0.028,0.034-0.057,0.046-0.085v0.001c0,0,0.003-0.003,0.007-0.009c0.006-0.017,0.012-0.034,0.015-0.052
		c0.062-0.145,0.253-0.49,0.647-0.319c0.071,0.082,0.154,0.156,0.247,0.218c0.107,0.071,0.222,0.122,0.339,0.154
		c-0.019,0.022-0.04,0.046-0.056,0.071c-0.147,0.229-0.086,0.532,0.142,0.682c0.226,0.148,0.53,0.085,0.679-0.142
		c0.13-0.199,0.096-0.459-0.068-0.62c0.263-0.08,0.5-0.25,0.66-0.496c0.056-0.088,0.102-0.182,0.136-0.277
		c0.099,0.224,0.262,0.422,0.48,0.567c0.617,0.403,1.443,0.232,1.847-0.383c0.053-0.082,0.093-0.165,0.127-0.252
		c0.036-0.091,0.058-0.179,0.073-0.259C243.191-5.961,240.491-9.524,240.491-13.722z"/>
</g>
</svg>
