<?xml version="1.0" encoding="utf-8"?>
<!-- Generator: Adobe Illustrator 16.2.1, SVG Export Plug-In . SVG Version: 6.00 Build 0)  -->
<!DOCTYPE svg PUBLIC "-//W3C//DTD SVG 1.1//EN" "http://www.w3.org/Graphics/SVG/1.1/DTD/svg11.dtd">
<svg version="1.1" id="Capa_1" xmlns="http://www.w3.org/2000/svg" xmlns:xlink="http://www.w3.org/1999/xlink" x="0px" y="0px"
	 width="111.204px" height="48.058px" viewBox="454.133 48.629 111.204 48.058"
	 enable-background="new 454.133 48.629 111.204 48.058" xml:space="preserve">
<g>
	<path fill="#D84629" d="M539.47,88.483c7.496-0.965,15.047-4.149,17.235-11.784c0.624-2.177,0.586-4.468,0.098-6.661
		c-0.439-1.972-1.532-4.046-1.554-5.859c-0.015-1.313,0.621-2.655,1.716-3.693c0.424-0.398,0.943-0.6,1.656-0.777
		c0.875-0.222,2.323,0.675,3.177,0.979c1.527,0.543,3.039-0.781,3.445-2.256c0.453-1.645-0.813-3.538-2.338-4.078
		c-4.743-1.678-9.719,0.241-12.196,4.579c-1.051,1.839-1.561,4.104-1.345,6.211c0.246,2.392,0.87,3.79,1.388,6.116
		c0.684,3.074-0.695,6.597-2.923,8.675c-1.119,1.042-2.501,1.883-4.133,2.661c-0.615,0.297-4.945,1.377-4.382,1.312
		c-1.602,0.208-3.234,1.218-2.958,2.97C536.735,89.314,539.47,88.483,539.47,88.483z"/>
	<path fill="#D84629" d="M516.966,58.402c-1.668,4.564-2.661,9.42-2.131,14.219c0.392,3.54,1.604,6.831,3.891,9.626
		c2.547,3.119,6.242,5.175,10.052,6.468c1.529,0.521,3.243-0.578,3.651-2.025c0.45-1.602-0.547-3.052-2.073-3.567
		c-1.529-0.519-2.94-1.231-4.295-2.099c-0.571-0.37-1.08-0.788-1.59-1.232c-0.244-0.218-0.476-0.452-0.707-0.685
		c-0.089-0.089-0.693-0.781-0.586-0.639c-0.779-1.007-1.404-2.249-1.697-3.052c-0.246-0.669-0.419-1.358-0.567-2.051
		c-0.065-0.29-0.109-0.585-0.159-0.88c0.062,0.377-0.059-0.68-0.067-0.788c-0.374-4.759,1.077-9.884,2.958-14.138
		c3.194-0.557,6.33-1.385,9.326-2.682c1.483-0.646,1.806-2.793,1.064-4.064c-0.89-1.519-3.061-2.642-4.545-1.998
		c0.261-0.105-8.434,2.97-20.508,4.013c-3.817,0.331-3.825,5.898,0,5.938C511.644,58.79,514.314,58.636,516.966,58.402z"/>
	<path fill="#D84629" d="M469.379,53.024c-4.83,12.918-8.533,26.42-14.475,38.783c-0.702,1.458-1.361,3.41,0.115,4.278
		c1.312,0.764,3.012-0.674,3.713-2.133c3.211-6.683,6.18-13.498,8.992-20.374c5.428,4.276,14.234,15.735,14.542,16.258
		c1.959,3.283,7.096,0.3,5.128-2.997c-1.428-2.398-3.265-4.607-5.113-6.69c-2.932-3.293-6.286-6.251-9.94-8.749
		c4.155-1.731,8.145-3.845,11.872-6.366c2.241-1.516,4.516-3.165,6.438-5.083c2.719-2.704-1.482-6.902-4.196-4.198
		c-0.398,0.396-2.798,4.362-16.064,11.177c1.612-4.099,3.179-8.214,4.715-12.327c0.566-1.518-0.618-3.252-2.075-3.653
		C471.367,50.493,469.945,51.51,469.379,53.024z"/>
	<path fill="#D84629" d="M497.136,60.799c-2.817-0.135-4.572,2.797-3.605,4.515c0.969,1.718,4.535,2.635,6.181,0.62
		C501.357,63.92,499.425,60.908,497.136,60.799z M492.343,70.856c-1.577,6.749-0.201,14.567,0.211,21.426
		c0.089,1.451,0.929,2.138,2.612,2.138c1.556,0,1.754-1.358,1.664-2.812c-0.282-4.714,1.125-18.841,1.24-19.335
		c0.333-1.421-0.445-2.876-2.074-3.279C494.51,68.626,492.674,69.433,492.343,70.856z"/>
	<path fill="#D84629" d="M508.548,63.874c-2.314,0.226-3.397,2.827-2.402,4.113c0.998,1.284,4.013,1.61,5.114-0.232
		C512.363,65.916,510.428,63.688,508.548,63.874z M504.877,73.643c-0.188,2.278-2.417,15.816-3.773,20.109
		c-1.01,3.194,3.064,4.139,4.277,1.025c2.732-7.006,4.843-13.936,5.436-21.133c0.117-1.396-1.437-2.567-2.969-2.567
		C506.141,71.078,504.995,72.249,504.877,73.643z"/>
	<path fill="#D84629" d="M535.537,62.092c-8.083,0.854-11.798,9.989-8.276,14.457c3.521,4.471,14.08,5.519,17.883-0.951
		C548.951,69.129,542.117,61.393,535.537,62.092z M539.936,74.306c-1.612,2.768-6.735,3.08-8.276-0.353
		c-1.538-3.435,1.933-7.22,4.77-7.236C539.265,66.702,541.92,70.905,539.936,74.306z"/>
</g>
</svg>
