<?xml version="1.0" encoding="utf-8"?>
<!-- Generator: Adobe Illustrator 16.0.0, SVG Export Plug-In . SVG Version: 6.00 Build 0)  -->
<!DOCTYPE svg PUBLIC "-//W3C//DTD SVG 1.1//EN" "http://www.w3.org/Graphics/SVG/1.1/DTD/svg11.dtd">
<svg version="1.1" id="Layer_1" xmlns="http://www.w3.org/2000/svg" xmlns:xlink="http://www.w3.org/1999/xlink" x="0px" y="0px"
	 width="29.048px" height="29.048px" viewBox="0 0 29.048 29.048" enable-background="new 0 0 29.048 29.048" xml:space="preserve">
<path fill="#FFFFFF" d="M14.524,2.118c6.851,0,12.405,5.554,12.405,12.406c0,6.852-5.554,12.405-12.405,12.405
	S2.119,21.376,2.119,14.524C2.119,7.672,7.673,2.118,14.524,2.118 M14.524,0c-1.96,0-3.862,0.385-5.654,1.143
	C7.14,1.874,5.587,2.921,4.254,4.255C2.921,5.587,1.874,7.141,1.142,8.87C0.384,10.661,0,12.564,0,14.524
	c0,1.959,0.384,3.862,1.142,5.654c0.731,1.729,1.779,3.282,3.112,4.616c1.333,1.333,2.886,2.379,4.616,3.112
	c1.792,0.756,3.694,1.141,5.654,1.141s3.862-0.385,5.654-1.141c1.729-0.733,3.283-1.779,4.616-3.112
	c1.333-1.334,2.38-2.888,3.112-4.616c0.758-1.792,1.142-3.695,1.142-5.654c0-1.96-0.384-3.863-1.142-5.654
	c-0.731-1.729-1.779-3.283-3.112-4.615c-1.333-1.334-2.886-2.381-4.616-3.112C18.386,0.385,16.484,0,14.524,0L14.524,0z"/>
<g>
	<circle fill="#FFFFFF" cx="10.303" cy="14.398" r="1.892"/>
	<circle fill="#FFFFFF" cx="18.575" cy="14.398" r="1.892"/>
	<path fill="#FFFFFF" d="M20.422,21.844L20.422,21.844c0.083-0.155,0.129-0.332,0.129-0.519c0-0.609-0.494-1.103-1.101-1.103
		c-0.408,0-0.764,0.223-0.954,0.553c-0.331,0.444-1.561,1.847-3.924,1.847c-2.749,0-3.966-1.898-4.016-1.98l0.005,0.01l-0.004,0.002
		c-0.193-0.32-0.542-0.533-0.942-0.533c-0.609,0-1.103,0.493-1.103,1.102c0,0.296,0.117,0.563,0.305,0.76
		c0.491,0.687,2.301,2.833,5.755,2.833c3.14,0,4.922-1.775,5.588-2.611c0.049-0.063,0.089-0.114,0.122-0.158
		c0.053-0.061,0.1-0.128,0.138-0.199C20.421,21.846,20.421,21.845,20.422,21.844z"/>
</g>
</svg>
