<?xml version="1.0" encoding="utf-8"?>
<!-- Generator: Adobe Illustrator 16.2.1, SVG Export Plug-In . SVG Version: 6.00 Build 0)  -->
<!DOCTYPE svg PUBLIC "-//W3C//DTD SVG 1.1//EN" "http://www.w3.org/Graphics/SVG/1.1/DTD/svg11.dtd">
<svg version="1.1" id="Capa_1" xmlns="http://www.w3.org/2000/svg" xmlns:xlink="http://www.w3.org/1999/xlink" x="0px" y="0px"
	 width="243.175px" height="263.161px" viewBox="509.733 246.153 243.175 263.161"
	 enable-background="new 509.733 246.153 243.175 263.161" xml:space="preserve">
<radialGradient id="SVGID_1_" cx="1687.4854" cy="-2338.3496" r="379.5986" fx="1897.2931" fy="-2022.002" gradientTransform="matrix(1 0 0 -1 -995.3848 -2049.7793)" gradientUnits="userSpaceOnUse">
	<stop  offset="0" style="stop-color:#000000"/>
	<stop  offset="0.8704" style="stop-color:#FFFFFF;stop-opacity:0"/>
</radialGradient>
<path fill="url(#SVGID_1_)" d="M740.387,402.886l0.102-0.168l-0.01-0.007c7.925-14.904,12.43-31.903,12.43-49.961
	c0-58.87-47.727-106.597-106.597-106.597c-40.88,0-76.369,23.023-94.25,56.802l-0.018-0.01l-27.759,45.977l0.023,0.013
	c-9.249,15.79-14.575,34.161-14.575,53.783c0,58.871,47.727,106.597,106.598,106.597c38.064,0,71.443-19.966,90.302-49.98
	l0.022,0.013C706.655,459.347,738.783,405.893,740.387,402.886z"/>
</svg>
